<svg width="162" height="8" viewBox="0 0 162 8" fill="none" xmlns="http://www.w3.org/2000/svg">
<path d="M1 3.5C0.723858 3.5 0.5 3.72386 0.5 4C0.5 4.27614 0.723858 4.5 1 4.5V3.5ZM161.357 4.35355C161.552 4.15829 161.552 3.84171 161.357 3.64645L158.175 0.464466C157.979 0.269204 157.663 0.269204 157.468 0.464466C157.272 0.659728 157.272 0.976311 157.468 1.17157L160.296 4L157.468 6.82843C157.272 7.02369 157.272 7.34027 157.468 7.53553C157.663 7.7308 157.979 7.7308 158.175 7.53553L161.357 4.35355ZM1 4.5H161.003V3.5H1V4.5Z" fill="#FDFAE9"/>
</svg>
